G75*
%MOIN*%
%OFA0B0*%
%FSLAX25Y25*%
%IPPOS*%
%LPD*%
%AMOC8*
5,1,8,0,0,1.08239X$1,22.5*
%
%ADD10C,0.00000*%
%ADD11C,0.05150*%
%ADD12C,0.11220*%
%ADD13C,0.07400*%
%ADD14C,0.05200*%
%ADD15C,0.05937*%
%ADD16OC8,0.05200*%
%ADD17C,0.01600*%
%ADD18C,0.03562*%
D10*
X0001800Y0007548D02*
X0001800Y0204398D01*
X0198650Y0204398D01*
X0198650Y0007548D01*
X0001800Y0007548D01*
D11*
X0123926Y0017548D03*
X0131800Y0017548D03*
X0139674Y0017548D03*
X0161721Y0026249D03*
X0166446Y0029398D03*
X0161721Y0032548D03*
X0166446Y0035698D03*
X0161721Y0038847D03*
D12*
X0181800Y0046918D03*
X0181800Y0018178D03*
D13*
X0193800Y0072548D03*
X0193800Y0082548D03*
X0193800Y0092548D03*
X0193800Y0102548D03*
X0193800Y0112548D03*
X0193800Y0122548D03*
X0193800Y0132548D03*
X0193800Y0142548D03*
X0121800Y0190048D03*
X0101800Y0190048D03*
X0084300Y0190048D03*
X0064300Y0190048D03*
X0006800Y0192548D03*
X0006800Y0182548D03*
X0006800Y0172548D03*
X0006800Y0162548D03*
X0006800Y0152548D03*
X0006800Y0142548D03*
X0006800Y0132548D03*
X0006800Y0122548D03*
X0006800Y0112548D03*
X0006800Y0102548D03*
X0006800Y0092548D03*
X0006800Y0082548D03*
X0006800Y0072548D03*
X0071800Y0072548D03*
X0071800Y0082548D03*
X0071800Y0092548D03*
D14*
X0084200Y0087548D02*
X0089400Y0087548D01*
X0089400Y0077548D02*
X0084200Y0077548D01*
X0084200Y0067548D02*
X0089400Y0067548D01*
X0089400Y0057548D02*
X0084200Y0057548D01*
X0084200Y0047548D02*
X0089400Y0047548D01*
X0089400Y0037548D02*
X0084200Y0037548D01*
X0114200Y0037548D02*
X0119400Y0037548D01*
X0119400Y0047548D02*
X0114200Y0047548D01*
X0114200Y0057548D02*
X0119400Y0057548D01*
X0119400Y0067548D02*
X0114200Y0067548D01*
X0114200Y0077548D02*
X0119400Y0077548D01*
X0119400Y0087548D02*
X0114200Y0087548D01*
X0114200Y0097548D02*
X0119400Y0097548D01*
X0119400Y0107548D02*
X0114200Y0107548D01*
X0114200Y0117548D02*
X0119400Y0117548D01*
X0119400Y0127548D02*
X0114200Y0127548D01*
X0114200Y0137548D02*
X0119400Y0137548D01*
X0119400Y0147548D02*
X0114200Y0147548D01*
X0114200Y0157548D02*
X0119400Y0157548D01*
X0119400Y0167548D02*
X0114200Y0167548D01*
X0089400Y0167548D02*
X0084200Y0167548D01*
X0084200Y0157548D02*
X0089400Y0157548D01*
X0089400Y0147548D02*
X0084200Y0147548D01*
X0084200Y0137548D02*
X0089400Y0137548D01*
X0089400Y0127548D02*
X0084200Y0127548D01*
X0084200Y0117548D02*
X0089400Y0117548D01*
X0089400Y0107548D02*
X0084200Y0107548D01*
X0084200Y0097548D02*
X0089400Y0097548D01*
D15*
X0116052Y0017548D03*
X0147548Y0017548D03*
D16*
X0106800Y0017548D03*
X0101800Y0025048D03*
X0096800Y0017548D03*
D17*
X0106800Y0017548D02*
X0106800Y0032548D01*
X0101800Y0037548D01*
X0096800Y0042548D02*
X0141800Y0042548D01*
X0146800Y0047548D01*
X0161800Y0047548D01*
X0166800Y0042548D01*
X0166800Y0036052D01*
X0166446Y0035698D01*
X0161721Y0026249D02*
X0155422Y0032548D01*
X0141800Y0032548D01*
X0131800Y0022548D01*
X0131800Y0017548D01*
X0139674Y0017548D02*
X0141087Y0017548D01*
X0145656Y0012980D01*
X0162231Y0012980D01*
X0191800Y0042548D01*
X0191800Y0057548D01*
X0186800Y0062548D01*
X0186800Y0077548D01*
X0193800Y0082548D01*
X0193800Y0092548D02*
X0181800Y0092548D01*
X0136800Y0047548D01*
X0116800Y0047548D01*
X0116800Y0057548D02*
X0136800Y0057548D01*
X0181800Y0102548D01*
X0193800Y0102548D01*
X0193800Y0112548D02*
X0181800Y0112548D01*
X0136800Y0067548D01*
X0116800Y0067548D01*
X0096800Y0042548D02*
X0091800Y0037548D01*
X0086800Y0037548D01*
X0086800Y0057548D02*
X0061800Y0057548D01*
X0026800Y0092548D01*
X0006800Y0092548D01*
X0006800Y0102548D02*
X0026800Y0102548D01*
X0041800Y0087548D01*
X0066800Y0062548D01*
X0076800Y0062548D01*
X0081800Y0067548D01*
X0086800Y0067548D01*
X0081800Y0072548D02*
X0086800Y0077548D01*
X0081800Y0072548D02*
X0071800Y0072548D01*
X0086800Y0087548D02*
X0081800Y0092548D01*
X0071800Y0092548D01*
X0076800Y0107548D02*
X0071800Y0112548D01*
X0006800Y0112548D01*
X0006800Y0122548D02*
X0071800Y0122548D01*
X0076800Y0117548D01*
X0086800Y0117548D01*
X0086800Y0127548D02*
X0056800Y0127548D01*
X0031800Y0152548D01*
X0006800Y0152548D01*
X0006800Y0142548D02*
X0031800Y0142548D01*
X0041800Y0132548D02*
X0006800Y0132548D01*
X0006800Y0162548D02*
X0031800Y0162548D01*
X0048219Y0146129D01*
X0048219Y0146065D01*
X0050317Y0143967D01*
X0050381Y0143967D01*
X0056800Y0137548D01*
X0086800Y0137548D01*
X0086800Y0147548D02*
X0051800Y0147548D01*
X0046800Y0157548D02*
X0086800Y0157548D01*
X0091800Y0162548D02*
X0046800Y0162548D01*
X0039300Y0170048D01*
X0026800Y0182548D01*
X0006800Y0182548D01*
X0064300Y0180048D02*
X0076800Y0167548D01*
X0086800Y0167548D01*
X0091800Y0162548D02*
X0096800Y0157548D01*
X0101800Y0157548D01*
X0111800Y0167548D01*
X0116800Y0167548D01*
X0116800Y0147548D02*
X0188800Y0147548D01*
X0193800Y0142548D01*
X0188800Y0137548D02*
X0193800Y0132548D01*
X0188800Y0137548D02*
X0116800Y0137548D01*
X0116800Y0127548D02*
X0188800Y0127548D01*
X0193800Y0122548D01*
X0146800Y0152548D02*
X0096288Y0152548D01*
X0064300Y0180048D02*
X0064300Y0190048D01*
X0076800Y0107548D02*
X0086800Y0107548D01*
D18*
X0051800Y0147548D03*
X0046800Y0157548D03*
X0039300Y0170048D03*
X0031800Y0142548D03*
X0041800Y0132548D03*
X0041800Y0087548D03*
X0101800Y0037548D03*
X0096288Y0152548D03*
X0101800Y0157548D03*
X0146800Y0152548D03*
M02*
