G75*
%MOIN*%
%OFA0B0*%
%FSLAX25Y25*%
%IPPOS*%
%LPD*%
%AMOC8*
5,1,8,0,0,1.08239X$1,22.5*
%
%ADD10C,0.00000*%
%ADD11C,0.00600*%
%ADD12C,0.00500*%
D10*
X0001800Y0007548D02*
X0001800Y0204398D01*
X0198650Y0204398D01*
X0198650Y0007548D01*
X0001800Y0007548D01*
D11*
X0015406Y0070348D02*
X0014339Y0071416D01*
X0014339Y0075686D01*
X0015406Y0076753D01*
X0018609Y0076753D01*
X0018609Y0070348D01*
X0015406Y0070348D01*
X0020784Y0070348D02*
X0020784Y0076753D01*
X0022919Y0080348D02*
X0020784Y0082483D01*
X0020784Y0086753D01*
X0018609Y0085686D02*
X0017541Y0086753D01*
X0015406Y0086753D01*
X0014339Y0085686D01*
X0014339Y0084618D01*
X0015406Y0083551D01*
X0014339Y0082483D01*
X0014339Y0081416D01*
X0015406Y0080348D01*
X0017541Y0080348D01*
X0018609Y0081416D01*
X0016474Y0083551D02*
X0015406Y0083551D01*
X0016773Y0090348D02*
X0013570Y0090348D01*
X0012502Y0091416D01*
X0012502Y0095686D01*
X0013570Y0096753D01*
X0016773Y0096753D01*
X0016773Y0090348D01*
X0018948Y0090348D02*
X0023218Y0090348D01*
X0023218Y0096753D01*
X0018948Y0096753D01*
X0021083Y0093551D02*
X0023218Y0093551D01*
X0025393Y0090348D02*
X0029664Y0090348D01*
X0029664Y0096753D01*
X0031839Y0096753D02*
X0036109Y0090348D01*
X0039352Y0090348D02*
X0039352Y0096753D01*
X0042555Y0093551D01*
X0038284Y0093551D01*
X0044730Y0093551D02*
X0049000Y0093551D01*
X0049000Y0094618D02*
X0046865Y0096753D01*
X0044730Y0094618D01*
X0044730Y0090348D01*
X0049000Y0090348D02*
X0049000Y0094618D01*
X0046852Y0100348D02*
X0046852Y0106753D01*
X0050055Y0103551D01*
X0045784Y0103551D01*
X0043609Y0100348D02*
X0039339Y0106753D01*
X0037164Y0106753D02*
X0037164Y0101416D01*
X0036096Y0100348D01*
X0033961Y0100348D01*
X0032893Y0101416D01*
X0032893Y0106753D01*
X0030718Y0105686D02*
X0030718Y0104618D01*
X0029650Y0103551D01*
X0027515Y0103551D01*
X0026448Y0102483D01*
X0026448Y0101416D01*
X0027515Y0100348D01*
X0029650Y0100348D01*
X0030718Y0101416D01*
X0030718Y0105686D02*
X0029650Y0106753D01*
X0027515Y0106753D01*
X0026448Y0105686D01*
X0024273Y0106753D02*
X0024273Y0100348D01*
X0020002Y0100348D01*
X0017827Y0100348D02*
X0017827Y0106753D01*
X0014624Y0106753D01*
X0013557Y0105686D01*
X0013557Y0103551D01*
X0014624Y0102483D01*
X0017827Y0102483D01*
X0015692Y0102483D02*
X0013557Y0100348D01*
X0020002Y0106753D02*
X0024273Y0106753D01*
X0024273Y0103551D02*
X0022137Y0103551D01*
X0020797Y0110348D02*
X0024000Y0110348D01*
X0024000Y0116753D01*
X0020797Y0116753D01*
X0019730Y0115686D01*
X0019730Y0114618D01*
X0020797Y0113551D01*
X0024000Y0113551D01*
X0020797Y0113551D02*
X0019730Y0112483D01*
X0019730Y0111416D01*
X0020797Y0110348D01*
X0017555Y0111416D02*
X0016487Y0110348D01*
X0014352Y0110348D01*
X0013284Y0111416D01*
X0013284Y0112483D01*
X0014352Y0113551D01*
X0015419Y0113551D01*
X0014352Y0113551D02*
X0013284Y0114618D01*
X0013284Y0115686D01*
X0014352Y0116753D01*
X0016487Y0116753D01*
X0017555Y0115686D01*
X0017555Y0120348D02*
X0013284Y0120348D01*
X0013284Y0124618D02*
X0013284Y0125686D01*
X0014352Y0126753D01*
X0016487Y0126753D01*
X0017555Y0125686D01*
X0019730Y0125686D02*
X0019730Y0124618D01*
X0020797Y0123551D01*
X0024000Y0123551D01*
X0024000Y0126753D02*
X0024000Y0120348D01*
X0020797Y0120348D01*
X0019730Y0121416D01*
X0019730Y0122483D01*
X0020797Y0123551D01*
X0019730Y0125686D02*
X0020797Y0126753D01*
X0024000Y0126753D01*
X0024000Y0130348D02*
X0024000Y0134618D01*
X0021865Y0136753D01*
X0019730Y0134618D01*
X0019730Y0130348D01*
X0017555Y0130348D02*
X0013284Y0130348D01*
X0015419Y0130348D02*
X0015419Y0136753D01*
X0017555Y0134618D01*
X0019730Y0133551D02*
X0024000Y0133551D01*
X0024000Y0140348D02*
X0024000Y0144618D01*
X0021865Y0146753D01*
X0019730Y0144618D01*
X0019730Y0140348D01*
X0017555Y0141416D02*
X0013284Y0145686D01*
X0013284Y0141416D01*
X0014352Y0140348D01*
X0016487Y0140348D01*
X0017555Y0141416D01*
X0017555Y0145686D01*
X0016487Y0146753D01*
X0014352Y0146753D01*
X0013284Y0145686D01*
X0019730Y0143551D02*
X0024000Y0143551D01*
X0013284Y0124618D02*
X0017555Y0120348D01*
X0025055Y0086753D02*
X0025055Y0082483D01*
X0022919Y0080348D01*
X0025055Y0076753D02*
X0020784Y0070348D01*
X0025055Y0070348D02*
X0025055Y0076753D01*
X0027230Y0075686D02*
X0028297Y0076753D01*
X0030432Y0076753D01*
X0031500Y0075686D01*
X0031500Y0071416D01*
X0030432Y0070348D01*
X0028297Y0070348D01*
X0027230Y0071416D01*
X0027230Y0073551D01*
X0029365Y0073551D01*
X0028297Y0080348D02*
X0030432Y0080348D01*
X0031500Y0081416D01*
X0029365Y0083551D02*
X0028297Y0083551D01*
X0027230Y0082483D01*
X0027230Y0081416D01*
X0028297Y0080348D01*
X0028297Y0083551D02*
X0027230Y0084618D01*
X0027230Y0085686D01*
X0028297Y0086753D01*
X0030432Y0086753D01*
X0031500Y0085686D01*
X0052230Y0101416D02*
X0053297Y0100348D01*
X0056500Y0100348D01*
X0056500Y0106753D01*
X0053297Y0106753D01*
X0052230Y0105686D01*
X0052230Y0104618D01*
X0053297Y0103551D01*
X0056500Y0103551D01*
X0053297Y0103551D02*
X0052230Y0102483D01*
X0052230Y0101416D01*
X0169339Y0121416D02*
X0170406Y0120348D01*
X0172541Y0120348D01*
X0173609Y0121416D01*
X0175784Y0120348D02*
X0180055Y0120348D01*
X0177919Y0120348D02*
X0177919Y0126753D01*
X0180055Y0124618D01*
X0182230Y0124618D02*
X0183297Y0123551D01*
X0186500Y0123551D01*
X0186500Y0126753D02*
X0186500Y0120348D01*
X0183297Y0120348D01*
X0182230Y0121416D01*
X0182230Y0122483D01*
X0183297Y0123551D01*
X0182230Y0124618D02*
X0182230Y0125686D01*
X0183297Y0126753D01*
X0186500Y0126753D01*
X0186500Y0130348D02*
X0183297Y0130348D01*
X0182230Y0131416D01*
X0182230Y0132483D01*
X0183297Y0133551D01*
X0186500Y0133551D01*
X0186500Y0136753D02*
X0186500Y0130348D01*
X0183297Y0133551D02*
X0182230Y0134618D01*
X0182230Y0135686D01*
X0183297Y0136753D01*
X0186500Y0136753D01*
X0186500Y0140348D02*
X0183297Y0140348D01*
X0182230Y0141416D01*
X0182230Y0142483D01*
X0183297Y0143551D01*
X0186500Y0143551D01*
X0186500Y0146753D02*
X0186500Y0140348D01*
X0183297Y0143551D02*
X0182230Y0144618D01*
X0182230Y0145686D01*
X0183297Y0146753D01*
X0186500Y0146753D01*
X0180055Y0144618D02*
X0177919Y0146753D01*
X0177919Y0140348D01*
X0175784Y0140348D02*
X0180055Y0140348D01*
X0177919Y0136753D02*
X0177919Y0130348D01*
X0175784Y0130348D02*
X0180055Y0130348D01*
X0180055Y0134618D02*
X0177919Y0136753D01*
X0173609Y0133551D02*
X0169339Y0133551D01*
X0170406Y0136753D02*
X0170406Y0130348D01*
X0173609Y0133551D02*
X0170406Y0136753D01*
X0170406Y0140348D02*
X0169339Y0141416D01*
X0169339Y0143551D01*
X0170406Y0144618D01*
X0171474Y0144618D01*
X0173609Y0143551D01*
X0173609Y0146753D01*
X0169339Y0146753D01*
X0170406Y0140348D02*
X0172541Y0140348D01*
X0173609Y0141416D01*
X0172541Y0126753D02*
X0170406Y0126753D01*
X0169339Y0125686D01*
X0169339Y0124618D01*
X0170406Y0123551D01*
X0169339Y0122483D01*
X0169339Y0121416D01*
X0170406Y0123551D02*
X0171474Y0123551D01*
X0173609Y0125686D02*
X0172541Y0126753D01*
X0176852Y0116753D02*
X0175784Y0115686D01*
X0175784Y0111416D01*
X0176852Y0110348D01*
X0178987Y0110348D01*
X0180055Y0111416D01*
X0182230Y0111416D02*
X0183297Y0110348D01*
X0186500Y0110348D01*
X0186500Y0116753D01*
X0183297Y0116753D01*
X0182230Y0115686D01*
X0182230Y0114618D01*
X0183297Y0113551D01*
X0186500Y0113551D01*
X0183297Y0113551D02*
X0182230Y0112483D01*
X0182230Y0111416D01*
X0180055Y0114618D02*
X0178987Y0113551D01*
X0175784Y0113551D01*
X0176852Y0116753D02*
X0178987Y0116753D01*
X0180055Y0115686D01*
X0180055Y0114618D01*
X0178987Y0106753D02*
X0176852Y0106753D01*
X0175784Y0105686D01*
X0175784Y0104618D01*
X0176852Y0103551D01*
X0178987Y0103551D01*
X0180055Y0104618D01*
X0180055Y0105686D01*
X0178987Y0106753D01*
X0178987Y0103551D02*
X0180055Y0102483D01*
X0180055Y0101416D01*
X0178987Y0100348D01*
X0176852Y0100348D01*
X0175784Y0101416D01*
X0175784Y0102483D01*
X0176852Y0103551D01*
X0182230Y0104618D02*
X0183297Y0103551D01*
X0186500Y0103551D01*
X0186500Y0106753D02*
X0183297Y0106753D01*
X0182230Y0105686D01*
X0182230Y0104618D01*
X0183297Y0103551D02*
X0182230Y0102483D01*
X0182230Y0101416D01*
X0183297Y0100348D01*
X0186500Y0100348D01*
X0186500Y0106753D01*
X0186500Y0096753D02*
X0183297Y0096753D01*
X0182230Y0095686D01*
X0182230Y0094618D01*
X0183297Y0093551D01*
X0186500Y0093551D01*
X0186500Y0096753D02*
X0186500Y0090348D01*
X0183297Y0090348D01*
X0182230Y0091416D01*
X0182230Y0092483D01*
X0183297Y0093551D01*
X0180055Y0091416D02*
X0180055Y0090348D01*
X0180055Y0091416D02*
X0175784Y0095686D01*
X0175784Y0096753D01*
X0180055Y0096753D01*
X0180055Y0086753D02*
X0180055Y0082483D01*
X0177919Y0080348D01*
X0175784Y0082483D01*
X0175784Y0086753D01*
X0182230Y0086753D02*
X0186500Y0086753D01*
X0186500Y0083551D01*
X0184365Y0084618D01*
X0183297Y0084618D01*
X0182230Y0083551D01*
X0182230Y0081416D01*
X0183297Y0080348D01*
X0185432Y0080348D01*
X0186500Y0081416D01*
X0185432Y0076753D02*
X0183297Y0076753D01*
X0182230Y0075686D01*
X0182230Y0073551D02*
X0184365Y0073551D01*
X0182230Y0073551D02*
X0182230Y0071416D01*
X0183297Y0070348D01*
X0185432Y0070348D01*
X0186500Y0071416D01*
X0186500Y0075686D01*
X0185432Y0076753D01*
X0180055Y0076753D02*
X0180055Y0070348D01*
X0175784Y0070348D02*
X0175784Y0076753D01*
X0173609Y0076753D02*
X0170406Y0076753D01*
X0169339Y0075686D01*
X0169339Y0071416D01*
X0170406Y0070348D01*
X0173609Y0070348D01*
X0173609Y0076753D01*
X0180055Y0076753D02*
X0175784Y0070348D01*
D12*
X0161131Y0047902D02*
X0196564Y0047902D01*
X0196564Y0017194D01*
X0161131Y0017194D01*
X0161131Y0047902D01*
X0174910Y0035501D02*
X0194595Y0037469D01*
X0194595Y0040422D02*
X0176879Y0038454D01*
X0174910Y0035501D02*
X0174910Y0029595D01*
X0194595Y0027627D01*
X0194595Y0024674D02*
X0178847Y0026643D01*
X0178847Y0018769D02*
X0194595Y0020737D01*
X0194595Y0024674D01*
X0194595Y0040422D02*
X0194595Y0044359D01*
X0176879Y0046328D01*
M02*
