%
M48
M72
T01C0.02362
T02C0.03150
T03C0.03200
T04C0.03937
T05C0.04000
T06C0.07480
%
T01
X41800Y87548
X41800Y132548
X31800Y142548
X46800Y157548
X51800Y147548
X39300Y170048
X96288Y152548
X101800Y157548
X146800Y152548
X101800Y37548
T02
X123926Y17548
X131800Y17548
X139674Y17548
X161721Y26249
X166446Y29398
X161721Y32548
X166446Y35698
X161721Y38847
T03
X86800Y37548
X86800Y47548
X86800Y57548
X86800Y67548
X86800Y77548
X86800Y87548
X86800Y97548
X86800Y107548
X86800Y117548
X86800Y127548
X86800Y137548
X86800Y147548
X86800Y157548
X86800Y167548
X116800Y167548
X116800Y157548
X116800Y147548
X116800Y137548
X116800Y127548
X116800Y117548
X116800Y107548
X116800Y97548
X116800Y87548
X116800Y77548
X116800Y67548
X116800Y57548
X116800Y47548
X116800Y37548
X101800Y25048
X96800Y17548
X106800Y17548
T04
X116052Y17548
X147548Y17548
T05
X6800Y72548
X6800Y82548
X6800Y92548
X6800Y102548
X6800Y112548
X6800Y122548
X6800Y132548
X6800Y142548
X6800Y152548
X6800Y162548
X6800Y172548
X6800Y182548
X6800Y192548
X64300Y190048
X84300Y190048
X101800Y190048
X121800Y190048
X193800Y142548
X193800Y132548
X193800Y122548
X193800Y112548
X193800Y102548
X193800Y92548
X193800Y82548
X193800Y72548
X71800Y72548
X71800Y82548
X71800Y92548
T06
X181800Y18178
X181800Y46918
M30
